<svg xmlns="http://www.w3.org/2000/svg" viewBox="-2.8 -3.2 5.6 6.4" role="img" aria-label="Rubik's Cube"><title>Rubik's Cube</title><g><polygon points="0,-3 0.866,-2.5 0,-2 -0.866,-2.5" fill="rgb(255,254,0)" stroke="black" stroke-width="0.015" stroke-linejoin="round"/><polygon points="0.866,-2.5 1.732,-2 0.866,-1.5 0,-2" fill="rgb(255,254,0)" stroke="black" stroke-width="0.015" stroke-linejoin="round"/><polygon points="1.732,-2 2.598,-1.5 1.732,-1 0.866,-1.5" fill="rgb(255,254,0)" stroke="black" stroke-width="0.015" stroke-linejoin="round"/><polygon points="-0.866,-2.5 0,-2 -0.866,-1.5 -1.732,-2" fill="rgb(255,254,0)" stroke="black" stroke-width="0.015" stroke-linejoin="round"/><polygon points="0,-2 0.866,-1.5 0,-1 -0.866,-1.5" fill="rgb(255,254,0)" stroke="black" stroke-width="0.015" stroke-linejoin="round"/><polygon points="0.866,-1.5 1.732,-1 0.866,-0.5 0,-1" fill="rgb(255,254,0)" stroke="black" stroke-width="0.015" stroke-linejoin="round"/><polygon points="-1.732,-2 -0.866,-1.5 -1.732,-1 -2.598,-1.5" fill="rgb(255,254,0)" stroke="black" stroke-width="0.015" stroke-linejoin="round"/><polygon points="-0.866,-1.5 0,-1 -0.866,-0.5 -1.732,-1" fill="rgb(255,254,0)" stroke="black" stroke-width="0.015" stroke-linejoin="round"/><polygon points="0,-1 0.866,-0.5 0,0 -0.866,-0.5" fill="rgb(255,254,0)" stroke="black" stroke-width="0.015" stroke-linejoin="round"/><polygon points="-2.598,-0.5 -1.732,0 -1.732,-1 -2.598,-1.5" fill="rgb(23,162,15)" stroke="black" stroke-width="0.015" stroke-linejoin="round"/><polygon points="-1.732,0 -0.866,0.5 -0.866,-0.5 -1.732,-1" fill="rgb(23,162,15)" stroke="black" stroke-width="0.015" stroke-linejoin="round"/><polygon points="-0.866,0.5 0,1 0,0 -0.866,-0.5" fill="rgb(23,162,15)" stroke="black" stroke-width="0.015" stroke-linejoin="round"/><polygon points="-2.598,0.5 -1.732,1 -1.732,0 -2.598,-0.5" fill="rgb(23,162,15)" stroke="black" stroke-width="0.015" stroke-linejoin="round"/><polygon points="-1.732,1 -0.866,1.5 -0.866,0.5 -1.732,0" fill="rgb(23,162,15)" stroke="black" stroke-width="0.015" stroke-linejoin="round"/><polygon points="-0.866,1.5 0,2 0,1 -0.866,0.5" fill="rgb(23,162,15)" stroke="black" stroke-width="0.015" stroke-linejoin="round"/><polygon points="-2.598,1.5 -1.732,2 -1.732,1 -2.598,0.5" fill="rgb(23,162,15)" stroke="black" stroke-width="0.015" stroke-linejoin="round"/><polygon points="-1.732,2 -0.866,2.5 -0.866,1.5 -1.732,1" fill="rgb(23,162,15)" stroke="black" stroke-width="0.015" stroke-linejoin="round"/><polygon points="-0.866,2.5 0,3 0,2 -0.866,1.5" fill="rgb(23,162,15)" stroke="black" stroke-width="0.015" stroke-linejoin="round"/><polygon points="0.866,0.5 0.866,-0.5 0,0 0,1" fill="rgb(255,172,5)" stroke="black" stroke-width="0.015" stroke-linejoin="round"/><polygon points="1.732,0 1.732,-1 0.866,-0.5 0.866,0.5" fill="rgb(255,172,5)" stroke="black" stroke-width="0.015" stroke-linejoin="round"/><polygon points="2.598,-0.5 2.598,-1.5 1.732,-1 1.732,0" fill="rgb(255,172,5)" stroke="black" stroke-width="0.015" stroke-linejoin="round"/><polygon points="0.866,1.5 0.866,0.5 0,1 0,2" fill="rgb(255,172,5)" stroke="black" stroke-width="0.015" stroke-linejoin="round"/><polygon points="1.732,1 1.732,0 0.866,0.5 0.866,1.5" fill="rgb(255,172,5)" stroke="black" stroke-width="0.015" stroke-linejoin="round"/><polygon points="2.598,0.5 2.598,-0.5 1.732,0 1.732,1" fill="rgb(255,172,5)" stroke="black" stroke-width="0.015" stroke-linejoin="round"/><polygon points="0.866,2.5 0.866,1.5 0,2 0,3" fill="rgb(255,172,5)" stroke="black" stroke-width="0.015" stroke-linejoin="round"/><polygon points="1.732,2 1.732,1 0.866,1.5 0.866,2.5" fill="rgb(255,172,5)" stroke="black" stroke-width="0.015" stroke-linejoin="round"/><polygon points="2.598,1.5 2.598,0.5 1.732,1 1.732,2" fill="rgb(255,172,5)" stroke="black" stroke-width="0.015" stroke-linejoin="round"/></g></svg>